<?xml version="1.0" encoding="UTF-8"?>
<svg width="32px" height="32px" viewBox="0 0 32 32" version="1.1" xmlns="http://www.w3.org/2000/svg" xmlns:xlink="http://www.w3.org/1999/xlink">
    <!-- Generator: Sketch 62 (91390) - https://sketch.com -->
    <title>afore_activo.svg</title>
    <desc>Created with Sketch.</desc>
    <g id="afore_activo.svg" stroke="none" stroke-width="1" fill="none" fill-rule="evenodd">
        <g id="Icono-/-Productos-/-Afore">
            <rect id="Rectangle-2" fill="#D8D8D8" opacity="0" x="0" y="0" width="32" height="32"></rect>
            <g id="ico-Inversiones" transform="translate(2.000000, 2.000000)">
                <rect id="BG" fill="#FFFFFF" opacity="0.300000012" x="0" y="0" width="28" height="28"></rect>
                <circle id="Oval" fill="#E3E84A" opacity="0.400000006" cx="14" cy="14" r="14"></circle>
            </g>
            <path d="M25.7376977,14.7394661 C23.7462943,12.0020715 21.1430824,9.69064545 18.740221,8.48783014 C19.5980977,7.59083847 20.1910814,6.57097123 20.5016919,5.96205452 C20.813647,5.35177252 21.5155461,3.82948072 21.2923368,2.88743468 C21.1941785,2.46965774 20.9077714,2.17748694 20.5258953,2.10649216 C20.3672285,2.07645591 20.1857028,2.06143779 19.9907309,2.06143779 C19.085792,2.06143779 17.8621748,2.38501012 16.7837782,2.6703545 C16.1356645,2.8423803 15.5225112,3.00484911 15.10433,3.06355633 C15.0424768,3.07038275 14.979279,3.07311332 14.9147366,3.07311332 C14.3217528,3.07311332 13.6534696,2.80005649 13.0093898,2.53655666 C12.3343834,2.26076927 11.6956821,2 11.0677379,2 C10.5446752,2 10.1009459,2.18431336 9.74596248,2.54611365 C9.48644807,2.8082482 9.20541951,3.30794219 9.31836878,4.20220329 C9.48644807,5.53881644 10.5285396,7.43929194 12.0815922,8.7404077 C9.91404176,10.0142178 7.61471718,12.254649 5.88551753,14.8172873 C3.61980881,18.1717904 2.6382258,21.5153712 3.11960487,24.2309213 C3.6036732,26.9792383 5.82366435,30.3678735 13.6238877,30.8962384 C14.6256402,30.9645026 15.5978108,31 16.5081281,31 L16.5108174,31 C25.7780367,31 28.3570452,27.4652794 28.8881757,24.5012476 C29.3803119,21.7324514 28.2333389,18.174521 25.7376977,14.7394661 M10.6038391,4.03700391 C10.5594662,3.68749117 10.6213194,3.51956123 10.6603138,3.47587213 C10.7719184,3.36391884 10.8889016,3.31886446 11.0663933,3.31886446 C11.4442355,3.31886446 11.9686429,3.53321407 12.5226322,3.75985123 C13.2473901,4.05611789 14.0689616,4.39197778 14.9133919,4.39061249 C15.0290305,4.39061249 15.1419797,4.38515136 15.2522398,4.3728638 C15.2535844,4.37149852 15.2629968,4.37149852 15.2683754,4.37013323 C15.7645454,4.30186903 16.416693,4.12847794 17.1091797,3.94552987 C18.1122768,3.68066475 19.2498374,3.37893696 19.9893862,3.37893696 C20.0082111,3.37893696 20.0243467,3.37893696 20.0431716,3.38030225 C19.9920755,4.21722141 18.9257805,6.77576385 17.1804453,8.14787439 L13.8713004,8.14787439 C13.7664189,8.14787439 13.666916,8.17381479 13.5795147,8.21886917 C11.9834339,7.22221176 10.7571274,5.26575962 10.6038391,4.03700391 M27.6080839,24.2650534 C26.9720719,27.809331 23.1331411,29.6825008 16.5067835,29.6825008 L16.5054389,29.6825008 C15.6220142,29.6825008 14.6821148,29.6483687 13.7059104,29.5828351 C10.7275455,29.380773 8.4120853,28.7308978 6.82407224,27.6536886 C5.47809335,26.7389483 4.66055572,25.5088273 4.39162887,23.998823 C3.97748152,21.658726 4.91065769,18.5841062 6.95046786,15.5613672 C8.81682021,12.7966668 11.3595236,10.4470129 13.5862379,9.42987618 C13.5983396,9.42441505 13.6077521,9.41758863 13.6185091,9.41349277 C13.6964979,9.44625959 13.7785206,9.46400829 13.8699557,9.46400829 L17.7290561,9.46400829 C20.0593072,10.4879714 22.6894118,12.7693611 24.6929169,15.5217739 C26.9787951,18.664658 28.0410562,21.8512311 27.6080839,24.2650534 M15.9971671,15.7402194 C17.3068409,15.7402194 18.4524693,16.4283226 18.4524693,17.2147262 C18.4524693,17.5778918 18.7429103,17.8727932 19.100583,17.8727932 C19.4582557,17.8727932 19.7473521,17.5778918 19.7473521,17.2147262 C19.7473521,15.796196 18.3933054,14.6561838 16.5753599,14.455487 L16.5753599,13.1311614 L15.2777878,13.1311614 L15.2777878,14.4732357 C13.5297633,14.7162563 12.2442929,15.8330587 12.2442929,17.2147262 C12.2442929,18.5800104 13.6427125,19.7309449 15.9837208,20.2961725 C16.0294384,20.3070948 16.0751559,20.3125559 16.1195288,20.3139212 C17.5112253,20.7207759 18.4511246,21.3911304 18.4511246,22.0027776 C18.4511246,22.7891813 17.3041516,23.4772845 15.9958225,23.4772845 C14.688838,23.4772845 13.5405203,22.7891813 13.5405203,22.0027776 C13.5405203,21.6396121 13.2500793,21.3447107 12.8937513,21.3447107 C12.5347339,21.3447107 12.2456376,21.6396121 12.2456376,22.0027776 C12.2456376,23.3858105 13.5311079,24.5012476 15.2791324,24.7442682 L15.2791324,26.1791818 L16.5767045,26.1791818 L16.5767045,24.7620169 C18.3959946,24.5613201 19.7486967,23.4213078 19.7486967,22.0027776 C19.7486967,20.6374935 18.3502771,19.486559 16.0079242,18.9226967 C15.9648959,18.9104091 15.9178337,18.904948 15.8721161,18.904948 C14.4817643,18.496728 13.541865,17.8263735 13.541865,17.2147262 C13.541865,16.4283226 14.6915273,15.7402194 15.9971671,15.7402194" id="Combined-Shape" fill="#000000" fill-rule="nonzero"></path>
        </g>
    </g>
</svg>