<?xml version="1.0" encoding="UTF-8"?>
<svg width="32px" height="32px" viewBox="0 0 32 32" version="1.1" xmlns="http://www.w3.org/2000/svg" xmlns:xlink="http://www.w3.org/1999/xlink">
    <!-- Generator: Sketch 62 (91390) - https://sketch.com -->
    <title>inversion_activo.svg</title>
    <desc>Created with Sketch.</desc>
    <g id="inversion_activo.svg" stroke="none" stroke-width="1" fill="none" fill-rule="evenodd">
        <path d="M16,2 C23.7319865,2 30,8.2680135 30,16 C30,23.7319865 23.7319865,30 16,30 C8.2680135,30 2,23.7319865 2,16 C2,8.2680135 8.2680135,2 16,2 Z" id="Circulo" fill="#B7B09C" opacity="0.5"></path>
        <g id="Icono-/-Productos-/-Inversion" transform="translate(5.000000, 2.000000)">
            <path d="M15.1492,7.14423529 C18.45712,7.14423529 21.88296,8.08332353 21.8856,9.65444118 L21.8856,9.65444118 L21.88824,9.65444118 L21.88824,12.6687353 C21.88824,12.7782529 21.8708302,12.8867159 21.8355449,12.9938986 C21.8308742,13.0066039 21.8267232,13.018944 21.8223522,13.0312381 C21.8051955,13.0781926 21.7842522,13.1252192 21.75976,13.1719706 L21.8039948,13.0794442 C21.7968227,13.0970987 21.7891937,13.1146561 21.7811141,13.1321156 L21.75976,13.1719706 C21.84512,13.3357353 21.88824,13.5037647 21.88824,13.6735 L21.88824,13.6735 L21.88824,15.6821765 C21.88824,15.7831647 21.8734364,15.8832562 21.843464,15.9820969 C21.8359779,16.0055501 21.8282676,16.0291489 21.8197569,16.0525802 C21.8025264,16.0971342 21.7826998,16.1409974 21.75976,16.1845588 L21.8102139,16.0779257 C21.7959742,16.1144511 21.779782,16.1505642 21.7616927,16.1862601 C21.8452937,16.349854 21.88824,16.5175481 21.88824,16.6869412 L21.88824,16.6869412 L21.88824,18.6956176 C21.88824,18.7966059 21.8734364,18.8966973 21.843464,18.9955381 C21.8361739,19.0184282 21.8289007,19.0407938 21.820909,19.0630088 C21.8037162,19.1079368 21.7833898,19.1531285 21.75976,19.198 L21.8084013,19.0961744 C21.7946908,19.130921 21.7792135,19.1652931 21.7620171,19.1992864 C21.8452937,19.3632952 21.88824,19.5309893 21.88824,19.7003824 L21.88824,19.7003824 L21.91728,22.1167647 L21.75536,22.504 L21.88736,22.7445294 L21.8880413,24.2345449 C21.8975939,24.2256456 21.90232,24.2209706 21.90232,24.2209706 C21.90232,24.8436176 22.04136,25.6735294 21.40248,25.9490294 C19.53512,26.7550588 19.13472,27.0851471 15.1492,27.3529706 C13.88904,27.4374118 11.73656,27.0970882 10.63304,26.8403529 C10.6436,26.8045294 10.65152,26.7687059 10.65152,26.7320294 L10.65152,26.7320294 L10.65152,25.8074412 C11.5852,26.0496765 13.29152,26.2543824 15.14832,26.2305 C17.9718167,26.1927701 19.8141933,25.5005004 20.8505845,24.9389127 L20.8525183,23.2256198 C19.5423143,23.6708063 16.9219858,24.3042203 15.1492,24.2209706 C14.8632,24.2073235 14.63088,23.9957941 14.63088,23.7185882 C14.63088,23.4405294 14.8632,23.2162059 15.1492,23.2162059 C17.2022224,23.2162059 19.784714,22.5218918 20.8502223,22.1051179 L20.8502551,20.0604072 C19.5855729,20.7954906 17.3426752,21.2075294 15.1492,21.2075294 C14.8632,21.2075294 14.63088,20.9832059 14.63088,20.7051471 C14.63088,20.4279412 14.8632,20.2027647 15.1492,20.2027647 C18.1148851,20.2027647 20.1077559,19.4705241 20.6802663,18.9619663 C20.6956529,18.9282319 20.7183015,18.8965009 20.74512,18.8670588 C20.83136,18.7715294 20.84984,18.7109706 20.84984,18.6956176 L20.84984,18.6956176 L20.8502551,17.046587 C19.5855729,17.7816752 17.3426752,18.1940882 15.1492,18.1940882 C14.8632,18.1940882 14.63088,17.9697647 14.63088,17.6917059 C14.63088,17.4145 14.8632,17.1893235 15.1492,17.1893235 C18.1165905,17.1893235 20.1100475,16.4562405 20.6812525,15.947648 C20.6964436,15.9142976 20.7187689,15.8832692 20.74512,15.8544706 C20.83136,15.7580882 20.84984,15.6975294 20.84984,15.6821765 L20.84984,15.6821765 L20.8502551,14.0326719 C19.5855729,14.7677553 17.3426752,15.1797941 15.1492,15.1797941 C14.8632,15.1797941 14.63088,14.9554706 14.63088,14.6774118 C14.63088,14.4002059 14.8632,14.1750294 15.1492,14.1750294 C18.1165905,14.1750294 20.1100475,13.4425438 20.6812525,12.9336461 C20.6965427,12.9003265 20.7188273,12.8691713 20.74512,12.8401765 C20.83136,12.7437941 20.84984,12.6840882 20.84984,12.6687353 L20.84984,12.6687353 L20.8502551,11.0197046 C19.5855729,11.7547929 17.3426752,12.1672059 15.1492,12.1672059 C14.8632,12.1672059 14.63088,11.9420294 14.63088,11.6648235 C14.63088,11.3876176 14.8632,11.1624412 15.1492,11.1624412 C18.69472,11.1624412 20.84984,10.1158824 20.84984,9.65614706 C20.8468721,9.1941166 18.6931582,8.14814706 15.15008,8.14814706 C11.60016,8.14814706 9.45032,9.19470588 9.45032,9.65529412 L9.45032,9.65529412 L9.45098815,12.6736673 C9.45396222,12.6894428 9.46997333,12.7432255 9.55504,12.8384706 C9.72752,13.0286765 9.72752,13.3127059 9.55504,13.5012059 C9.4688,13.5975882 9.45032,13.6581471 9.45032,13.6735 L9.45032,13.6735 L9.45032,15.6821765 C9.45032,15.7035 9.47144,15.7640588 9.55328,15.8544706 C9.57088,15.8732353 9.5788,15.8962647 9.59288,15.9175882 C9.2356,15.8348529 8.84048,15.7717353 8.41896,15.7316471 L8.41896,15.7316471 L8.41016,15.6821765 L8.41016,13.6735 C8.41016,13.5029118 8.45592,13.3340294 8.54128,13.1702647 C8.4568,13.0056471 8.41016,12.8384706 8.41016,12.6687353 L8.41016,12.6687353 L8.41016,9.65529412 C8.41016,8.08332353 11.83776,7.14423529 15.1492,7.14423529 Z" id="Combined-Shape" fill="#000000" fill-rule="nonzero"></path>
            <path d="M11.1672,19.7627761 L11.1672,22.170458 C11.1683657,22.1842506 11.16896,22.1982033 11.16896,22.2122941 C11.16896,22.2329622 11.1683565,22.2534759 11.1672,22.2738349 L11.1672,24.6815168 C11.1683657,24.6953094 11.16896,24.7092622 11.16896,24.7233529 C11.16896,24.7440211 11.1683565,24.7645347 11.1672,24.7848937 L11.1672,26.7320294 C11.16632,28.0515294 8.48496,28.7407059 5.83264,28.7407059 C3.17944,28.7407059 0.49632,28.0515294 0.49632,26.7320294 L0.49632,17.1893235 C0.49632,15.8698235 3.18032,15.1797941 5.83264,15.1797941 C8.44394381,15.1797941 11.0877044,15.8495355 11.1654426,17.1302949 C11.1677657,17.1496516 11.16896,17.1693489 11.16896,17.1893235 C11.16896,17.2099916 11.1683565,17.2305053 11.1672,17.2508643 L11.1672,19.6593992 C11.1683657,19.6731917 11.16896,19.6871445 11.16896,19.7012353 C11.16896,19.7219034 11.1683565,19.7424171 11.1672,19.7627761 L11.1672,19.7627761 Z M9.9836,21.0830249 C9.08590071,21.4974521 7.79153513,21.7099118 6.50584,21.7099118 C6.21896,21.7099118 5.98752,21.4855882 5.98752,21.2075294 C5.98752,20.9294706 6.21896,20.7051471 6.50584,20.7051471 C8.39279235,20.7051471 9.58415497,20.2476533 9.9836,19.9160933 L9.9836,18.5711131 C9.08590071,18.9855403 7.79153513,19.198 6.50584,19.198 C6.21896,19.198 5.98752,18.9736765 5.98752,18.6956176 C5.98752,18.4184118 6.21896,18.1932353 6.50584,18.1932353 C8.39279235,18.1932353 9.58415497,17.7357416 9.9836,17.4041815 L9.9836,17.1893235 C9.9836,16.8976176 8.5272,16.1845588 5.83264,16.1845588 C3.13632,16.1845588 1.68168,16.8976176 1.68168,17.1893235 L1.68168,26.7320294 C1.68168,27.0237353 3.13544,27.7367941 5.83264,27.7367941 C8.5272,27.7367941 9.9836,27.0237353 9.9836,26.7320294 L9.9836,26.1051425 C9.08590071,26.5195697 7.79153513,26.7320294 6.50584,26.7320294 C6.21896,26.7320294 5.98752,26.5068529 5.98752,26.2296471 C5.98752,25.9515882 6.21896,25.7272647 6.50584,25.7272647 C8.39279235,25.7272647 9.58415497,25.269771 9.9836,24.9382109 L9.9836,23.5940837 C9.08590071,24.0085109 7.79153513,24.2209706 6.50584,24.2209706 C6.21896,24.2209706 5.98752,23.9957941 5.98752,23.7185882 C5.98752,23.4405294 6.21896,23.2162059 6.50584,23.2162059 C8.39279235,23.2162059 9.58415497,22.7587122 9.9836,22.4271521 L9.9836,21.0830249 L9.9836,21.0830249 Z" id="Shape" fill="#000000" fill-rule="nonzero"></path>
            <polyline id="Combined-Shape" stroke="#000000" stroke-width="1.0711051" stroke-linecap="round" stroke-linejoin="round" points="13.69192 0.569764706 17.82528 1.05082353 17.20224 4.96838235"></polyline>
            <path d="M0.856766673,11.2328086 L18.0352467,1.7788086 C18.2993933,1.63343822 18.3919419,1.3080434 18.2419598,1.05201893 C18.0919776,0.795994464 17.75626,0.706291602 17.4921133,0.851661984 L0.313633327,10.305662 C0.049486702,10.4510324 -0.043061906,10.7764272 0.106920226,11.0324517 C0.256902358,11.2884761 0.592620047,11.378179 0.856766673,11.2328086 Z" id="Shape" fill="#000000"></path>
        </g>
    </g>
</svg>